PathFileType	4	(X/Y/Z)	F:\biomechanics\vid_Sports2D\vid_Sports2D_m_person00.trc
DataRate	CameraRate	NumFrames	NumMarkers	Units	OrigDataRate	OrigDataStartFrame	OrigNumFrames
250.0	250.0	11	22	m	250.0	192	769
Frame#	Time	Hip			RHip			RKnee			RAnkle			RBigToe			RSmallToe			RHeel			LHip			LKnee			LAnkle			LBigToe			LSmallToe			LHeel			Neck			Head			Nose			RShoulder			RElbow			RWrist			LShoulder			LElbow			LWrist			
		X1	Y1	Z1	X2	Y2	Z2	X3	Y3	Z3	X4	Y4	Z4	X5	Y5	Z5	X6	Y6	Z6	X7	Y7	Z7	X8	Y8	Z8	X9	Y9	Z9	X10	Y10	Z10	X11	Y11	Z11	X12	Y12	Z12	X13	Y13	Z13	X14	Y14	Z14	X15	Y15	Z15	X16	Y16	Z16	X17	Y17	Z17	X18	Y18	Z18	X19	Y19	Z19	X20	Y20	Z20	X21	Y21	Z21	X22	Y22	Z22
231	0.9251449814126396	1.060530979925794	0.8143835355633444	0.0	1.0242574301728768	0.8189150291619812	0.105	1.2716024765561447	0.4837465278181645	0.0886	1.382006626410802	0.04611582450537873	0.0972	1.5609100364638675	-0.0350196471970315	0.0766	1.5061194124472794	-0.05474035563898252	0.12	1.3522517475058098	-0.010953752378980651	0.0883	1.1190369773351652	0.8207484465781413	-0.105	1.287528245133856	0.4738198627903969	-0.0886	1.2333115834892978	0.061255095174172935	-0.0972	1.392744155941917	-0.018345716107427038	-0.0766	1.3683205424209217	-0.005563113287538605	-0.12	1.196285225498131	0.0015616500381801786	-0.0883	1.1966422833211143	1.332193272290207	0.0	1.243463608939134	1.6066301058011456	0.0	1.3095137340508816	1.470988114956733	0.0	1.1361091923755258	1.2512494035088368	0.2016	1.0166181535227772	1.009374876161139	0.1613	1.2573754576384693	0.9228081979442816	0.12	1.2541721310907046	1.2683673449396646	-0.2016	1.3165649389186649	1.0644488751769166	-0.1613	1.379534089563071	0.9210614766735462	-0.12
232	0.9291499380421315	1.0646249275463355	0.8121588423217043	0.0	1.0284230852112426	0.816510392448986	0.105	1.2753199607115826	0.4821328515941449	0.0886	1.386728480594103	0.04453553663626898	0.0972	1.565962339579086	-0.03678195382352775	0.0766	1.5112004530141812	-0.056580619756388166	0.12	1.3569551838790634	-0.012747221656339723	0.0883	1.122804185963583	0.8186447226009488	-0.105	1.293828810233969	0.4725183326534456	-0.0886	1.2422365769517656	0.05939704516882287	-0.0972	1.4014009836881485	-0.019389311236677503	-0.0766	1.376934447652238	-0.006741396810608997	-0.12	1.2053659948705733	-0.0006413494825816666	-0.0883	1.1999007543664664	1.3300370991885	0.0	1.246135729319663	1.6043952716862815	0.0	1.3124971529879639	1.4690459807195215	0.0	1.1403066402708049	1.2485809854288858	0.2016	1.021961045663423	1.0056530432152282	0.1613	1.2629160778143274	0.9199736994828298	0.12	1.2568835761718378	1.2664162481226187	-0.2016	1.3196986727744382	1.0621034496211088	-0.1613	1.385335434232934	0.9178348450791344	-0.12
233	0.9331548946716234	1.0685499380668861	0.809894299620718	0.0	1.032455641765592	0.8140649273713739	0.105	1.279081929361263	0.4804954681930068	0.0886	1.3913784030298755	0.04291893290254572	0.0972	1.5709149306974837	-0.03858718445717207	0.0766	1.5162168240534664	-0.05846593834114821	0.12	1.361591305596265	-0.014556447435224962	0.0883	1.1264015771454585	0.8164869393601863	-0.105	1.300037889918849	0.4712210970700808	-0.0886	1.251079181499841	0.05760255874013721	-0.0972	1.4099444748139662	-0.0203021129180944	-0.0766	1.385448051601405	-0.007802353136081919	-0.12	1.214345603904743	-0.0027593251699050882	-0.0883	1.203143381087692	1.3278288901230615	0.0	1.248732919159738	1.6021696805682444	0.0	1.315466452163214	1.4670873397573478	0.0	1.1445302128434782	1.245854450096604	0.2016	1.0273046730530953	1.0018791422095206	0.1613	1.2685564123515638	0.9171085620895596	0.12	1.2595753717656013	1.2644060668491461	-0.2016	1.3228568177826054	1.0597110372670182	-0.1613	1.3910874396782897	0.9146740865031766	-0.12
234	0.9371598513011153	1.0722862330511491	0.8075933205449612	0.0	1.0363350975013432	0.8115798951756696	0.105	1.2828906633662873	0.47883979986588787	0.0886	1.3959493145506636	0.04126615609810816	0.0972	1.5757609909781614	-0.040429464470677974	0.0766	1.521162428137842	-0.060389340369329705	0.12	1.3661523485604643	-0.016378562424392683	0.0883	1.129815820812562	0.8142769800375279	-0.105	1.3061508123862826	0.4699322505352855	-0.0886	1.2598311122456078	0.05586451715048497	-0.0972	1.418387456083425	-0.021079474545431222	-0.0766	1.3938859219805457	-0.008742820464437404	-0.12	1.2232132748501172	-0.004794031367622652	-0.0883	1.2063728653642167	1.3255681549387093	0.0	1.2512563249636945	1.599954905275282	0.0	1.3184219594798479	1.4651154289919235	0.0	1.148782609607018	1.243071356820645	0.2016	1.0326594597174363	0.9980517123336609	0.1613	1.2743016433769683	0.9142111176876565	0.12	1.2622467052722552	1.2623315777328006	-0.2016	1.3260375990690887	1.057275566590774	-0.1613	1.396786612665277	0.9115826882558152	-0.12
235	0.9411648079306073	1.075818027324478	0.8052583289099527	0.0	1.0400447719790895	0.8090563195026134	0.105	1.286748426832005	0.4771703536945453	0.0886	1.400433610599713	0.039578657848724934	0.0972	1.5804939228070487	-0.042303145644769155	0.0766	1.5260301077332163	-0.06234394919775622	0.12	1.3706305315763252	-0.018210149073290882	0.0883	1.133037253283017	0.8120165117724887	-0.105	1.31216404224531	0.46865471019418037	-0.0886	1.2684848665260227	0.05417515854980245	-0.0972	1.4267398414047683	-0.021719284638937675	-0.0766	1.4022719330100906	-0.009562514154367532	-0.12	1.2319579584421199	-0.0067475296048504566	-0.0883	1.20959159140014	1.3232549928359492	0.0	1.2537080699449141	1.5977505123078592	0.0	1.3213641729939496	1.4631327398941028	0.0	1.1530659238343324	1.2402326430549653	0.2016	1.0380364600184486	0.9941693906657273	0.1613	1.280156494159014	0.9112803515452108	0.12	1.2648963652024519	1.260188452301697	-0.2016	1.3292387981470744	1.0548012191630796	-0.1613	1.402430406644915	0.9085636827924766	-0.12
236	0.9451697645600993	1.0791342513937698	0.8028911298723407	0.0	1.0435719937876176	0.8064949695541129	0.105	1.2906576417676925	0.47549132163917485	0.0886	1.404823887436564	0.03785914897507432	0.0972	1.585107408880272	-0.04420250321783534	0.0766	1.5308120168195054	-0.06432317868830897	0.12	1.375018583786795	-0.020047429662199412	0.0883	1.1360597259168093	0.8097073872340321	-0.105	1.31807489603466	0.4673905798283251	-0.0886	1.2770343521757896	0.0525267808565119	-0.0972	1.4350095052031755	-0.02222108502836862	-0.0766	1.4106288382772554	-0.010262580186479603	-0.12	1.2405689520771852	-0.008622291757586015	-0.0883	1.2128015487501622	1.320889761118361	0.0	1.2560911198649694	1.5955539577644593	0.0	1.3242930273587208	1.4611411134290224	0.0	1.1573815764027664	1.2373390833758193	0.2016	1.0434473355873681	0.9902308913908939	0.1613	1.2861251707398558	0.9083151247018028	0.12	1.2675231222198549	1.2579733832883337	-0.2016	1.3324573413917562	1.0522933228444176	-0.1613	1.408016279313148	0.9056212998661758	-0.12
237	0.9491747211895912	1.0822290081168313	0.8004937642147132	0.0	1.0469091442933147	0.8038969476502373	0.105	1.2946206974103294	0.4738067913099108	0.0886	1.4091129372237339	0.03611166997396545	0.0972	1.5895950741323972	-0.0461215744414439	0.0766	1.5355002939008615	-0.06632021858089324	0.12	1.3793092977225976	-0.021886451727196582	0.0883	1.1388806176603266	0.8073524649671587	-0.105	1.3238820345099245	0.46614184172717493	-0.0886	1.2854748689485092	0.05091243151191258	-0.0972	1.4432021447437646	-0.02258554374792287	-0.0766	1.4189773296532164	-0.010844995278047657	-0.12	1.2490365269316877	-0.01042076986296734	-0.0883	1.2160042051990732	1.3184727358206516	0.0	1.2584092100643056	1.5933608210245818	0.0	1.3272078807217296	1.4591415985740672	0.0	1.1617298969533028	1.2343914116687935	0.2016	1.0489036702592998	0.9862347169686309	0.1613	1.2922101645136448	0.9053144871230439	0.12	1.2701256514136956	1.2556841151423634	-0.2016	1.335689616819743	1.0497587476070285	-0.1613	1.4135416873581585	0.9027612168547704	-0.12
238	0.9531796778190832	1.085101121427689	0.7980689087077362	0.0	1.0500539972492646	0.8012644686420867	0.105	1.2986395012430103	0.4721203208678326	0.0886	1.4132938786486664	0.034341069480413364	0.0972	1.5939504648361738	-0.04805410792325277	0.0766	1.5400875583921703	-0.06832759733239216	0.12	1.3834953872612912	-0.023723724292618546	0.0883	1.1415009076514617	0.8049559163416646	-0.105	1.3295856110367568	0.46491040282460494	-0.0886	1.293802761336209	0.049326154387156644	-0.0972	1.451321777523549	-0.02281427135503869	-0.0766	1.4273353482239157	-0.011312822738332944	-0.12	1.257352603486621	-0.012145066071180597	-0.0883	1.2192003799326052	1.316004028746803	0.0	1.2606664474978533	1.5911649199543978	0.0	1.3301078202567667	1.4571345064584942	0.0	1.1661096661431454	1.2313902235486318	0.2016	1.0544159640537245	0.9821791736782391	0.1613	1.2984111729178658	0.9022785914680772	0.12	1.2727019124768784	1.2533191109031856	-0.2016	1.3389316912365927	1.0472054163106508	-0.1613	1.419004506181986	0.899989690319231	-0.12
239	0.9571846344485752	1.0877532647923875	0.7956197238516425	0.0	1.0530086867061943	0.7986013169201199	0.105	1.302715121136204	0.47043454544851737	0.0886	1.4173609232323234	0.032551780465660395	0.0972	1.5981677381896295	-0.04999350860322105	0.0766	1.5445672292104158	-0.07033742617356385	0.12	1.3875705508900402	-0.025557182005919107	0.0883	1.1439247161985453	0.802523041665867	-0.105	1.3351867033770877	0.46369725710311577	-0.0886	1.3020155937406048	0.047762271604371916	-0.0972	1.4593742890555947	-0.02291010156448934	-0.0766	1.435718732630234	-0.01167043270979855	-0.12	1.2655115214526031	-0.013797686899035164	-0.0883	1.2223902794338104	1.3134836684645568	0.0	1.2628669027827035	1.5889588934820005	0.0	1.3329913868879824	1.4551198388142366	0.0	1.1705180734281715	1.2283363556387616	0.2016	1.059993347481097	0.9780630562460552	0.1613	1.304725039565805	0.8992090600566657	0.12	1.2752488165543714	1.25087782607143	-0.2016	1.3421790266918134	1.0446415543273686	-0.1613	1.4244031579530463	0.8973128379318676	-0.12
240	0.961189591078067	1.0901918676607523	0.7931495621504129	0.0	1.055778573110315	0.795912738341748	0.105	1.3068478617517982	0.46875096586170123	0.0886	1.4213100837646546	0.030746763765547986	0.0972	1.6022425388055022	-0.05193299914505569	0.0766	1.5489341402309802	-0.07234204209176229	0.12	1.3915304605112853	-0.02738702482892651	0.0883	1.1461591496671204	0.8000598280561518	-0.105	1.3406872724954981	0.4625016311494934	-0.0886	1.31011234920361	0.04621464462633061	-0.0972	1.467369881540218	-0.02287819614158175	-0.0766	1.4441417442914042	-0.011923812992878688	-0.12	1.273510311271316	-0.01538279852056925	-0.0883	1.2255736176025522	1.3109120302771409	0.0	1.265014668425648	1.5867352276051172	0.0	1.3358562459661982	1.453097473344044	0.0	1.1749510083718409	1.2252313862941964	0.2016	1.0656438835610156	0.9738863127859418	0.1613	1.311146018430983	0.8961086539985371	0.12	1.2777628682325035	1.2483614314838294	-0.2016	1.345426511752612	1.0420751289170773	-0.1613	1.4297369671283358	0.8947361526609219	-0.12
241	0.965194547707559	1.0924280283066108	0.7906618209305767	0.0	1.0583723576464172	0.7932048201099611	0.105	1.3110377569861558	0.4670697121328089	0.0886	1.4251391172663734	0.028927022282099604	0.0972	1.6061722456855956	-0.053865792960856605	0.0766	1.5531850395934585	-0.07433427919846333	0.12	1.3953724185200311	-0.029216230975537685	0.0883	1.1482150760998588	0.7975722889903755	-0.105	1.3460910037260863	0.46132080848286305	-0.0886	1.3180929533737136	0.044677030471162435	-0.0972	1.4753196238112924	-0.022727576144177444	-0.0766	1.4526150178806791	-0.012080994570420552	-0.12	1.2813482189392962	-0.016906927535752094	-0.0883	1.2287499875034067	1.3082904399710669	0.0	1.2671143904671	1.5844867997800545	0.0	1.3386996898328205	1.451066804294281	0.0	1.1794034168107945	1.2220774927420848	0.2016	1.0713745931108867	0.969649857770593	0.1613	1.3176655563106825	0.8929806199616125	0.12	1.280241431595138	1.245772589282509	-0.2016	1.3486692351522227	1.0395135101624209	-0.1613	1.4350069586694654	0.8922638745269118	-0.12
